<svg xmlns="http://www.w3.org/2000/svg" width="1000" height="560" viewBox="0 0 1000 560" role="img" aria-labelledby="title desc">
  <title id="title">uuzzrm account repository star history</title>
  <desc id="desc">uuzzrm account repository star history. 76 total stars across 63 public repositories.</desc>
  <rect width="1000" height="560" rx="28" fill="#0d1117" />
  <rect x="1" y="1" width="998" height="558" rx="27" fill="none" stroke="#253047" />
  <circle cx="865" cy="66" r="110" fill="#172554" opacity="0.7" />
  <text x="56" y="62" fill="#f0f6fc" font-family="-apple-system,BlinkMacSystemFont,'Segoe UI',sans-serif" font-size="26" font-weight="650">uuzzrm / repository stars</text>
  <text x="56" y="91" fill="#8b949e" font-family="-apple-system,BlinkMacSystemFont,'Segoe UI',sans-serif" font-size="15">Total stars received by tracked public repositories</text>
  <text x="944" y="60" text-anchor="end" fill="#f0f6fc" font-family="-apple-system,BlinkMacSystemFont,'Segoe UI',sans-serif" font-size="34" font-weight="650">76</text>
  <text x="944" y="88" text-anchor="end" fill="#8b949e" font-family="-apple-system,BlinkMacSystemFont,'Segoe UI',sans-serif" font-size="14">stars · updated 2026-09-23</text>
  <g font-family="-apple-system,BlinkMacSystemFont,'Segoe UI',sans-serif">
    <line x1="92" y1="420.00" x2="948" y2="420.00" stroke="#273244" stroke-width="1" /><text x="74" y="425.00" text-anchor="end" fill="#8b949e" font-size="14">0</text><line x1="92" y1="357.50" x2="948" y2="357.50" stroke="#273244" stroke-width="1" /><text x="74" y="362.50" text-anchor="end" fill="#8b949e" font-size="14">25</text><line x1="92" y1="295.00" x2="948" y2="295.00" stroke="#273244" stroke-width="1" /><text x="74" y="300.00" text-anchor="end" fill="#8b949e" font-size="14">50</text><line x1="92" y1="232.50" x2="948" y2="232.50" stroke="#273244" stroke-width="1" /><text x="74" y="237.50" text-anchor="end" fill="#8b949e" font-size="14">75</text><line x1="92" y1="170.00" x2="948" y2="170.00" stroke="#273244" stroke-width="1" /><text x="74" y="175.00" text-anchor="end" fill="#8b949e" font-size="14">100</text>
    <path d="M 92.00 402.50 L 111.45 400.00 L 130.91 377.50 L 150.36 302.50 L 169.82 227.50 L 189.27 197.50 L 208.73 222.50 L 228.18 232.50 L 247.64 232.50 L 267.09 232.50 L 286.55 232.50 L 306.00 230.00 L 325.45 230.00 L 344.91 230.00 L 364.36 230.00 L 383.82 230.00 L 403.27 230.00 L 422.73 230.00 L 442.18 230.00 L 461.64 230.00 L 481.09 230.00 L 500.55 230.00 L 520.00 230.00 L 539.45 230.00 L 558.91 230.00 L 578.36 230.00 L 597.82 230.00 L 617.27 230.00 L 636.73 230.00 L 656.18 230.00 L 675.64 230.00 L 695.09 230.00 L 714.55 230.00 L 734.00 230.00 L 753.45 230.00 L 772.91 230.00 L 792.36 230.00 L 811.82 230.00 L 831.27 230.00 L 850.73 230.00 L 870.18 230.00 L 889.64 230.00 L 909.09 230.00 L 928.55 230.00 L 948.00 230.00" fill="none" stroke="#7dd3fc" stroke-width="3" stroke-linecap="round" stroke-linejoin="round" />
    <circle cx="948.00" cy="230.00" r="4" fill="#f0f6fc" stroke="#7dd3fc" stroke-width="3" />
    <text x="92.00" y="454" text-anchor="start" fill="#8b949e" font-size="14">2026-08-10</text><text x="948.00" y="454" text-anchor="end" fill="#8b949e" font-size="14">2026-09-23</text>
  </g>
  <line x1="56" y1="484" x2="944" y2="484" stroke="#273244" stroke-width="1" />
  <text x="56" y="516" fill="#8b949e" font-family="-apple-system,BlinkMacSystemFont,'Segoe UI',sans-serif" font-size="13">63 public repositories · forks count only their own stars</text>
  <text x="944" y="516" text-anchor="end" fill="#8b949e" font-family="-apple-system,BlinkMacSystemFont,'Segoe UI',sans-serif" font-size="13">history from 2026-08-10</text>
</svg>
