<svg xmlns="http://www.w3.org/2000/svg" width="1000" height="560" viewBox="0 0 1000 560" role="img" aria-labelledby="title desc">
  <title id="title">uuzzrm account repository star history</title>
  <desc id="desc">uuzzrm account repository star history. 76 total stars across 63 public repositories.</desc>
  <rect width="1000" height="560" rx="28" fill="#ffffff" />
  <rect x="1" y="1" width="998" height="558" rx="27" fill="none" stroke="#dbeafe" />
  <circle cx="865" cy="66" r="110" fill="#eff6ff" opacity="0.7" />
  <text x="56" y="62" fill="#111827" font-family="-apple-system,BlinkMacSystemFont,'Segoe UI',sans-serif" font-size="26" font-weight="650">uuzzrm / repository stars</text>
  <text x="56" y="91" fill="#64748b" font-family="-apple-system,BlinkMacSystemFont,'Segoe UI',sans-serif" font-size="15">Total stars received by tracked public repositories</text>
  <text x="944" y="60" text-anchor="end" fill="#111827" font-family="-apple-system,BlinkMacSystemFont,'Segoe UI',sans-serif" font-size="34" font-weight="650">76</text>
  <text x="944" y="88" text-anchor="end" fill="#64748b" font-family="-apple-system,BlinkMacSystemFont,'Segoe UI',sans-serif" font-size="14">stars · updated 2026-09-14</text>
  <g font-family="-apple-system,BlinkMacSystemFont,'Segoe UI',sans-serif">
    <line x1="92" y1="420.00" x2="948" y2="420.00" stroke="#e2e8f0" stroke-width="1" /><text x="74" y="425.00" text-anchor="end" fill="#64748b" font-size="14">0</text><line x1="92" y1="357.50" x2="948" y2="357.50" stroke="#e2e8f0" stroke-width="1" /><text x="74" y="362.50" text-anchor="end" fill="#64748b" font-size="14">25</text><line x1="92" y1="295.00" x2="948" y2="295.00" stroke="#e2e8f0" stroke-width="1" /><text x="74" y="300.00" text-anchor="end" fill="#64748b" font-size="14">50</text><line x1="92" y1="232.50" x2="948" y2="232.50" stroke="#e2e8f0" stroke-width="1" /><text x="74" y="237.50" text-anchor="end" fill="#64748b" font-size="14">75</text><line x1="92" y1="170.00" x2="948" y2="170.00" stroke="#e2e8f0" stroke-width="1" /><text x="74" y="175.00" text-anchor="end" fill="#64748b" font-size="14">100</text>
    <path d="M 92.00 402.50 L 116.46 400.00 L 140.91 377.50 L 165.37 302.50 L 189.83 227.50 L 214.29 197.50 L 238.74 222.50 L 263.20 232.50 L 287.66 232.50 L 312.11 232.50 L 336.57 232.50 L 361.03 230.00 L 385.49 230.00 L 409.94 230.00 L 434.40 230.00 L 458.86 230.00 L 483.31 230.00 L 507.77 230.00 L 532.23 230.00 L 556.69 230.00 L 581.14 230.00 L 605.60 230.00 L 630.06 230.00 L 654.51 230.00 L 678.97 230.00 L 703.43 230.00 L 727.89 230.00 L 752.34 230.00 L 776.80 230.00 L 801.26 230.00 L 825.71 230.00 L 850.17 230.00 L 874.63 230.00 L 899.09 230.00 L 923.54 230.00 L 948.00 230.00" fill="none" stroke="#2563eb" stroke-width="3" stroke-linecap="round" stroke-linejoin="round" />
    <circle cx="948.00" cy="230.00" r="4" fill="#0f172a" stroke="#2563eb" stroke-width="3" />
    <text x="92.00" y="454" text-anchor="start" fill="#64748b" font-size="14">2026-08-10</text><text x="948.00" y="454" text-anchor="end" fill="#64748b" font-size="14">2026-09-14</text>
  </g>
  <line x1="56" y1="484" x2="944" y2="484" stroke="#e2e8f0" stroke-width="1" />
  <text x="56" y="516" fill="#64748b" font-family="-apple-system,BlinkMacSystemFont,'Segoe UI',sans-serif" font-size="13">63 public repositories · forks count only their own stars</text>
  <text x="944" y="516" text-anchor="end" fill="#64748b" font-family="-apple-system,BlinkMacSystemFont,'Segoe UI',sans-serif" font-size="13">history from 2026-08-10</text>
</svg>
